# xmcd
#
# Track frame offsets:
#	150
#	22741
#	41120
#	61025
#	78749
#	93133
#	116461
#	131775
#	153759
#	171375
#	200785
#	214591
#
# Disc length: 3571 seconds
#
# Revision: 1
# Processed by: cddbd v1.5.2PL0 Copyright (c) Steve Scherf et al.
# Submitted via: audiograbber 1.83.01
#
DISCID=9b0df10c
DTITLE=Selig - Und Endlich Unendlich
DYEAR=1900
DGENRE=
TTITLE0=Auf Dem Weg Zur Ruhe
TTITLE1=Wir Werden Uns Wiedersehen
TTITLE2=Schau Schau
TTITLE3=Ich Fall In Deine Arme
TTITLE4=Alte Zeit Zurück
TTITLE5=Ich Bin So Gefährlich
TTITLE6=Immer Wieder
TTITLE7=Lang Lebe Die Nacht
TTITLE8=Der Schönste Aller Wege
TTITLE9=Ich Darf Schon
TTITLE10=Du Siehst Gut Aus
TTITLE11=Traumfen
EXTD=
EXTT0=
EXTT1=
EXTT2=
EXTT3=
EXTT4=
EXTT5=
EXTT6=
EXTT7=
EXTT8=
EXTT9=
EXTT10=
EXTT11=
PLAYORDER=
